<svg id="Layer_1" data-name="Layer 1" xmlns="http://www.w3.org/2000/svg" xmlns:xlink="http://www.w3.org/1999/xlink" viewBox="0 0 90.71 90.71"><defs><style>.cls-1{fill:#272727;}.cls-2{fill:url(#linear-gradient);}.cls-3{fill:url(#linear-gradient-2);}</style><linearGradient id="linear-gradient" x1="35.85" y1="68.07" x2="30.59" y2="5.31" gradientUnits="userSpaceOnUse"><stop offset="0.01"/><stop offset="0.07" stop-color="#040404"/><stop offset="0.13" stop-color="#111"/><stop offset="0.2" stop-color="#262626"/><stop offset="0.26" stop-color="#444"/><stop offset="0.32" stop-color="#6b6b6b"/><stop offset="0.39" stop-color="#9a9a9a"/><stop offset="0.46" stop-color="#d0d0d0"/><stop offset="0.51" stop-color="#fff"/><stop offset="0.69" stop-color="#fdfdfd"/><stop offset="0.76" stop-color="#f6f6f6"/><stop offset="0.8" stop-color="#ebebeb"/><stop offset="0.84" stop-color="#dadada"/><stop offset="0.87" stop-color="#c4c4c4"/><stop offset="0.9" stop-color="#a8a8a8"/><stop offset="0.93" stop-color="#888"/><stop offset="0.95" stop-color="#626262"/><stop offset="0.98" stop-color="#373737"/><stop offset="1" stop-color="#090909"/><stop offset="1"/></linearGradient><linearGradient id="linear-gradient-2" x1="59.83" y1="66.06" x2="54.57" y2="3.3" xlink:href="#linear-gradient"/></defs><rect class="cls-1" x="-0.36" y="-0.5" width="91.07" height="91.21"/><path class="cls-2" d="M44.24,47.45a12.41,12.41,0,0,1-.68,4.17,9.22,9.22,0,0,1-2,3.31,9.31,9.31,0,0,1-3.36,2.2,12.66,12.66,0,0,1-4.65.79,12.71,12.71,0,0,1-4.68-.79,9.31,9.31,0,0,1-3.36-2.2,9.22,9.22,0,0,1-2-3.31,12.41,12.41,0,0,1-.68-4.17V31.79h5.61V47.23a6.31,6.31,0,0,0,.38,2.2,5.28,5.28,0,0,0,1.06,1.74,4.87,4.87,0,0,0,1.64,1.15,5.11,5.11,0,0,0,2.07.42,5,5,0,0,0,2.05-.42,4.69,4.69,0,0,0,1.62-1.15,5.3,5.3,0,0,0,1.07-1.74,6.31,6.31,0,0,0,.37-2.2V31.79h5.62Z"/><path class="cls-3" d="M54.36,36.75H47.08v-5H67.24v5H60V57.27H54.36Z"/></svg>