<svg id="Layer_1" data-name="Layer 1" xmlns="http://www.w3.org/2000/svg" xmlns:xlink="http://www.w3.org/1999/xlink" viewBox="0 0 90.71 90.71"><defs><style>.cls-1{fill:#272727;}.cls-2{fill:url(#linear-gradient);}.cls-3{fill:url(#linear-gradient-2);}</style><linearGradient id="linear-gradient" x1="34.67" y1="0.54" x2="33.73" y2="68.64" gradientUnits="userSpaceOnUse"><stop offset="0.01"/><stop offset="0.05" stop-color="#040404"/><stop offset="0.08" stop-color="#111010"/><stop offset="0.12" stop-color="#252222"/><stop offset="0.17" stop-color="#2a2727"/><stop offset="0.23" stop-color="#373435"/><stop offset="0.29" stop-color="#4d4b4b"/><stop offset="0.35" stop-color="#6d6b6c"/><stop offset="0.42" stop-color="#959495"/><stop offset="0.49" stop-color="#c5c6c7"/><stop offset="0.52" stop-color="#e2e3e4"/><stop offset="0.61" stop-color="#f3f3f4"/><stop offset="0.65" stop-color="#fff"/><stop offset="0.71" stop-color="#fcfcfc"/><stop offset="0.76" stop-color="#f2f2f2"/><stop offset="0.8" stop-color="#e2e2e2"/><stop offset="0.84" stop-color="#cbcbcb"/><stop offset="0.87" stop-color="#adadad"/><stop offset="0.91" stop-color="#898989"/><stop offset="0.94" stop-color="#5d5d5d"/><stop offset="0.97" stop-color="#2c2c2c"/><stop offset="1"/></linearGradient><linearGradient id="linear-gradient-2" x1="56.17" y1="0.84" x2="55.23" y2="68.94" xlink:href="#linear-gradient"/></defs><rect class="cls-1" width="90.71" height="90.71"/><path class="cls-2" d="M34.1,58.49a10.89,10.89,0,0,1-3.58-.55,7.72,7.72,0,0,1-2.73-1.61,6.68,6.68,0,0,1-1.73-2.53,9,9,0,0,1-.6-3.37V32.21h5.4V50.39a3.54,3.54,0,0,0,.85,2.54,3.14,3.14,0,0,0,2.39.88,3.18,3.18,0,0,0,2.38-.88,3.46,3.46,0,0,0,.86-2.54V32.21h5.4V50.43a9,9,0,0,1-.59,3.37,6.8,6.8,0,0,1-1.73,2.53,7.76,7.76,0,0,1-2.72,1.61A10.81,10.81,0,0,1,34.1,58.49Z"/><path class="cls-3" d="M46.16,37.25v-5H65.24v5H58.4V58.13H53V37.25Z"/></svg>